<svg width="28" height="28" viewBox="0 0 28 28" fill="none" xmlns="http://www.w3.org/2000/svg">
<path d="M14 0.400024C6.4894 0.400024 0.4 6.48942 0.4 14C0.4 20.3728 4.78827 25.7051 10.7043 27.1807C10.6408 26.9971 10.6 26.784 10.6 26.52V24.1955C10.0481 24.1955 9.12327 24.1955 8.89093 24.1955C7.96047 24.1955 7.13313 23.7954 6.73193 23.052C6.28653 22.2258 6.20947 20.9621 5.1056 20.1892C4.77807 19.9319 5.0274 19.6384 5.4048 19.678C6.1018 19.8752 6.6798 20.3535 7.2238 21.063C7.76553 21.7736 8.02053 21.9345 9.0326 21.9345C9.52333 21.9345 10.2577 21.9062 10.9491 21.7974C11.3208 20.8533 11.9634 19.984 12.7488 19.5738C8.22 19.108 6.05873 16.8549 6.05873 13.796C6.05873 12.4791 6.61973 11.2052 7.57287 10.132C7.26007 9.06662 6.8668 6.89402 7.693 6.06669C9.73073 6.06669 10.9627 7.38816 11.2585 7.74516C12.2739 7.39722 13.3891 7.20002 14.561 7.20002C15.7351 7.20002 16.8549 7.39722 17.8726 7.74742C18.165 7.39269 19.3981 6.06669 21.4403 6.06669C22.2699 6.89516 21.8721 9.07682 21.5559 10.1399C22.5034 11.2109 23.061 12.4814 23.061 13.796C23.061 16.8526 20.9031 19.1046 16.3811 19.5726C17.6255 20.222 18.5333 22.0467 18.5333 23.4214V26.52C18.5333 26.6378 18.5073 26.7228 18.4937 26.8237C23.7931 24.9662 27.6 19.9342 27.6 14C27.6 6.48942 21.5106 0.400024 14 0.400024Z" fill="white"/>
</svg>
