<svg width="28" height="28" viewBox="0 0 28 28" fill="none" xmlns="http://www.w3.org/2000/svg">
<circle cx="13.6119" cy="13.6119" r="13.6119" fill="white"/>
<path d="M10.4913 6.12537C8.08376 6.12537 6.12537 8.08557 6.12537 10.4937V16.7326C6.12537 19.1401 8.08558 21.0985 10.4938 21.0985H16.7326C19.1401 21.0985 21.0985 19.1383 21.0985 16.7301V10.4913C21.0985 8.08376 19.1383 6.12537 16.7301 6.12537H10.4913ZM17.9791 8.62089C18.3235 8.62089 18.603 8.90039 18.603 9.24477C18.603 9.58915 18.3235 9.86865 17.9791 9.86865C17.6347 9.86865 17.3552 9.58915 17.3552 9.24477C17.3552 8.90039 17.6347 8.62089 17.9791 8.62089ZM13.6119 9.86865C15.6764 9.86865 17.3552 11.5475 17.3552 13.6119C17.3552 15.6764 15.6764 17.3552 13.6119 17.3552C11.5475 17.3552 9.86866 15.6764 9.86866 13.6119C9.86866 11.5475 11.5475 9.86865 13.6119 9.86865ZM13.6119 11.1164C12.9501 11.1164 12.3153 11.3793 11.8473 11.8473C11.3793 12.3153 11.1164 12.9501 11.1164 13.6119C11.1164 14.2738 11.3793 14.9085 11.8473 15.3765C12.3153 15.8445 12.9501 16.1075 13.6119 16.1075C14.2738 16.1075 14.9085 15.8445 15.3765 15.3765C15.8445 14.9085 16.1075 14.2738 16.1075 13.6119C16.1075 12.9501 15.8445 12.3153 15.3765 11.8473C14.9085 11.3793 14.2738 11.1164 13.6119 11.1164V11.1164Z" fill="#061A30"/>
</svg>
