<svg width="28" height="28" viewBox="0 0 28 28" fill="none" xmlns="http://www.w3.org/2000/svg">
<path d="M14 0.400024C6.4894 0.400024 0.4 6.48942 0.4 14C0.4 21.5106 6.4894 27.6 14 27.6C21.5106 27.6 27.6 21.5106 27.6 14C27.6 6.48942 21.5106 0.400024 14 0.400024ZM8.89547 6.52342C9.84973 6.52342 10.4855 7.15922 10.4855 8.00696C10.4855 8.85469 9.84973 9.49049 8.79007 9.49049C7.8358 9.49162 7.2 8.85469 7.2 8.00696C7.2 7.15922 7.8358 6.52342 8.89547 6.52342ZM10.6 19.6667H7.2V10.6H10.6V19.6667ZM21.9333 19.6667H18.7328V14.7118C18.7328 13.3416 17.8794 13.0254 17.5598 13.0254C17.2402 13.0254 16.1726 13.2362 16.1726 14.7118C16.1726 14.9226 16.1726 19.6667 16.1726 19.6667H12.8667V10.6H16.1737V11.8648C16.5999 11.127 17.4533 10.6 19.0535 10.6C20.6538 10.6 21.9333 11.8648 21.9333 14.7118V19.6667Z" fill="white"/>
</svg>
